<mxfile host="Electron" modified="2024-04-15T16:57:18.703Z" agent="Mozilla/5.0 (Windows NT 10.0; Win64; x64) AppleWebKit/537.36 (KHTML, like Gecko) draw.io/22.1.11 Chrome/114.0.5735.289 Electron/25.9.8 Safari/537.36" etag="LfvZtoCv42OvUzZefp-y" version="22.1.11" type="device">
  <diagram name="Page-1" id="GLkNRQ3mVNnGI99ByODn">
    <mxGraphModel dx="2030" dy="1177" grid="1" gridSize="10" guides="1" tooltips="1" connect="1" arrows="1" fold="1" page="1" pageScale="1" pageWidth="850" pageHeight="1100" math="0" shadow="0">
      <root>
        <mxCell id="0" />
        <mxCell id="1" parent="0" />
        <mxCell id="vRhS7HgRSA_vDluGKMzi-1" value="" style="rounded=0;whiteSpace=wrap;html=1;" vertex="1" parent="1">
          <mxGeometry x="117.5" y="320" width="120" height="120" as="geometry" />
        </mxCell>
        <mxCell id="vRhS7HgRSA_vDluGKMzi-2" value="" style="rounded=0;whiteSpace=wrap;html=1;" vertex="1" parent="1">
          <mxGeometry x="120" y="80" width="60" height="120" as="geometry" />
        </mxCell>
        <mxCell id="vRhS7HgRSA_vDluGKMzi-3" value="" style="rounded=0;whiteSpace=wrap;html=1;" vertex="1" parent="1">
          <mxGeometry x="180" y="80" width="60" height="120" as="geometry" />
        </mxCell>
        <mxCell id="vRhS7HgRSA_vDluGKMzi-4" value="" style="rounded=0;whiteSpace=wrap;html=1;" vertex="1" parent="1">
          <mxGeometry x="277.5" y="320" width="120" height="120" as="geometry" />
        </mxCell>
        <mxCell id="vRhS7HgRSA_vDluGKMzi-5" value="" style="rounded=0;whiteSpace=wrap;html=1;" vertex="1" parent="1">
          <mxGeometry x="147.5" y="350" width="60" height="60" as="geometry" />
        </mxCell>
        <mxCell id="vRhS7HgRSA_vDluGKMzi-6" value="" style="rounded=0;whiteSpace=wrap;html=1;" vertex="1" parent="1">
          <mxGeometry x="760" y="80" width="120" height="60" as="geometry" />
        </mxCell>
        <mxCell id="vRhS7HgRSA_vDluGKMzi-7" value="" style="rounded=0;whiteSpace=wrap;html=1;" vertex="1" parent="1">
          <mxGeometry x="760" y="140" width="120" height="60" as="geometry" />
        </mxCell>
        <mxCell id="vRhS7HgRSA_vDluGKMzi-9" value="" style="rounded=0;whiteSpace=wrap;html=1;" vertex="1" parent="1">
          <mxGeometry x="317.5" y="360" width="80" height="80" as="geometry" />
        </mxCell>
        <mxCell id="vRhS7HgRSA_vDluGKMzi-10" value="" style="rounded=0;whiteSpace=wrap;html=1;" vertex="1" parent="1">
          <mxGeometry x="437.5" y="320" width="120" height="120" as="geometry" />
        </mxCell>
        <mxCell id="vRhS7HgRSA_vDluGKMzi-11" value="" style="rounded=0;whiteSpace=wrap;html=1;" vertex="1" parent="1">
          <mxGeometry x="437.5" y="320" width="80" height="80" as="geometry" />
        </mxCell>
        <mxCell id="vRhS7HgRSA_vDluGKMzi-13" value="" style="rounded=0;whiteSpace=wrap;html=1;" vertex="1" parent="1">
          <mxGeometry x="600" y="80" width="40" height="120" as="geometry" />
        </mxCell>
        <mxCell id="vRhS7HgRSA_vDluGKMzi-14" value="" style="rounded=0;whiteSpace=wrap;html=1;" vertex="1" parent="1">
          <mxGeometry x="680" y="80" width="40" height="120" as="geometry" />
        </mxCell>
        <mxCell id="vRhS7HgRSA_vDluGKMzi-15" value="" style="rounded=0;whiteSpace=wrap;html=1;" vertex="1" parent="1">
          <mxGeometry x="640" y="80" width="40" height="120" as="geometry" />
        </mxCell>
        <mxCell id="vRhS7HgRSA_vDluGKMzi-16" value="" style="rounded=0;whiteSpace=wrap;html=1;" vertex="1" parent="1">
          <mxGeometry x="1080" y="80" width="120" height="40" as="geometry" />
        </mxCell>
        <mxCell id="vRhS7HgRSA_vDluGKMzi-17" value="" style="rounded=0;whiteSpace=wrap;html=1;" vertex="1" parent="1">
          <mxGeometry x="1080" y="160" width="120" height="40" as="geometry" />
        </mxCell>
        <mxCell id="vRhS7HgRSA_vDluGKMzi-18" value="" style="rounded=0;whiteSpace=wrap;html=1;" vertex="1" parent="1">
          <mxGeometry x="1080" y="120" width="120" height="40" as="geometry" />
        </mxCell>
        <mxCell id="vRhS7HgRSA_vDluGKMzi-19" value="" style="rounded=0;whiteSpace=wrap;html=1;" vertex="1" parent="1">
          <mxGeometry x="280" y="80" width="60" height="120" as="geometry" />
        </mxCell>
        <mxCell id="vRhS7HgRSA_vDluGKMzi-20" value="" style="rounded=0;whiteSpace=wrap;html=1;" vertex="1" parent="1">
          <mxGeometry x="340" y="80" width="60" height="60" as="geometry" />
        </mxCell>
        <mxCell id="vRhS7HgRSA_vDluGKMzi-22" value="" style="rounded=0;whiteSpace=wrap;html=1;" vertex="1" parent="1">
          <mxGeometry x="340" y="140" width="60" height="60" as="geometry" />
        </mxCell>
        <mxCell id="vRhS7HgRSA_vDluGKMzi-23" value="" style="rounded=0;whiteSpace=wrap;html=1;" vertex="1" parent="1">
          <mxGeometry x="500" y="80" width="60" height="120" as="geometry" />
        </mxCell>
        <mxCell id="vRhS7HgRSA_vDluGKMzi-24" value="" style="rounded=0;whiteSpace=wrap;html=1;" vertex="1" parent="1">
          <mxGeometry x="440" y="80" width="60" height="60" as="geometry" />
        </mxCell>
        <mxCell id="vRhS7HgRSA_vDluGKMzi-25" value="" style="rounded=0;whiteSpace=wrap;html=1;" vertex="1" parent="1">
          <mxGeometry x="440" y="140" width="60" height="60" as="geometry" />
        </mxCell>
        <mxCell id="vRhS7HgRSA_vDluGKMzi-26" value="" style="rounded=0;whiteSpace=wrap;html=1;" vertex="1" parent="1">
          <mxGeometry x="920" y="80" width="60" height="60" as="geometry" />
        </mxCell>
        <mxCell id="vRhS7HgRSA_vDluGKMzi-27" value="" style="rounded=0;whiteSpace=wrap;html=1;" vertex="1" parent="1">
          <mxGeometry x="920" y="140" width="120" height="60" as="geometry" />
        </mxCell>
        <mxCell id="vRhS7HgRSA_vDluGKMzi-28" value="" style="rounded=0;whiteSpace=wrap;html=1;" vertex="1" parent="1">
          <mxGeometry x="757.5" y="320" width="120" height="120" as="geometry" />
        </mxCell>
        <mxCell id="vRhS7HgRSA_vDluGKMzi-29" value="" style="rounded=0;whiteSpace=wrap;html=1;" vertex="1" parent="1">
          <mxGeometry x="797.5" y="360" width="40" height="80" as="geometry" />
        </mxCell>
        <mxCell id="vRhS7HgRSA_vDluGKMzi-30" value="" style="rounded=0;whiteSpace=wrap;html=1;" vertex="1" parent="1">
          <mxGeometry x="597.5" y="320" width="120" height="120" as="geometry" />
        </mxCell>
        <mxCell id="vRhS7HgRSA_vDluGKMzi-31" value="" style="rounded=0;whiteSpace=wrap;html=1;" vertex="1" parent="1">
          <mxGeometry x="637.5" y="320" width="80" height="80" as="geometry" />
        </mxCell>
        <mxCell id="vRhS7HgRSA_vDluGKMzi-32" value="" style="rounded=0;whiteSpace=wrap;html=1;" vertex="1" parent="1">
          <mxGeometry x="917.5" y="320" width="120" height="120" as="geometry" />
        </mxCell>
        <mxCell id="vRhS7HgRSA_vDluGKMzi-33" value="" style="rounded=0;whiteSpace=wrap;html=1;" vertex="1" parent="1">
          <mxGeometry x="957.5" y="320" width="40" height="80" as="geometry" />
        </mxCell>
        <mxCell id="vRhS7HgRSA_vDluGKMzi-34" value="" style="rounded=0;whiteSpace=wrap;html=1;" vertex="1" parent="1">
          <mxGeometry x="1077.5" y="320" width="120" height="120" as="geometry" />
        </mxCell>
        <mxCell id="vRhS7HgRSA_vDluGKMzi-35" value="" style="rounded=0;whiteSpace=wrap;html=1;" vertex="1" parent="1">
          <mxGeometry x="1117.5" y="360" width="80" height="40" as="geometry" />
        </mxCell>
        <mxCell id="vRhS7HgRSA_vDluGKMzi-36" value="" style="rounded=0;whiteSpace=wrap;html=1;" vertex="1" parent="1">
          <mxGeometry x="117.5" y="560" width="120" height="120" as="geometry" />
        </mxCell>
        <mxCell id="vRhS7HgRSA_vDluGKMzi-37" value="" style="rounded=0;whiteSpace=wrap;html=1;" vertex="1" parent="1">
          <mxGeometry x="152.5" y="560" width="50" height="50" as="geometry" />
        </mxCell>
        <mxCell id="vRhS7HgRSA_vDluGKMzi-40" value="" style="rounded=0;whiteSpace=wrap;html=1;" vertex="1" parent="1">
          <mxGeometry x="187.5" y="630" width="50" height="50" as="geometry" />
        </mxCell>
        <mxCell id="vRhS7HgRSA_vDluGKMzi-41" value="" style="rounded=0;whiteSpace=wrap;html=1;" vertex="1" parent="1">
          <mxGeometry x="117.5" y="630" width="50" height="50" as="geometry" />
        </mxCell>
        <mxCell id="vRhS7HgRSA_vDluGKMzi-42" value="" style="rounded=0;whiteSpace=wrap;html=1;" vertex="1" parent="1">
          <mxGeometry x="437.5" y="560" width="120" height="120" as="geometry" />
        </mxCell>
        <mxCell id="vRhS7HgRSA_vDluGKMzi-46" value="" style="strokeWidth=2;html=1;shape=mxgraph.flowchart.annotation_2;align=left;labelPosition=right;pointerEvents=1;rotation=-90;" vertex="1" parent="1">
          <mxGeometry x="326.25" y="13.75" width="30" height="432.5" as="geometry" />
        </mxCell>
        <mxCell id="vRhS7HgRSA_vDluGKMzi-47" value="" style="strokeWidth=2;html=1;shape=mxgraph.flowchart.annotation_2;align=left;labelPosition=right;pointerEvents=1;rotation=-90;" vertex="1" parent="1">
          <mxGeometry x="886.25" y="96.25" width="30" height="267.5" as="geometry" />
        </mxCell>
        <mxCell id="vRhS7HgRSA_vDluGKMzi-48" value="&lt;div style=&quot;text-indent: 28px;&quot;&gt;&lt;font face=&quot;Helvetica Neue, Helvetica, Arial, PingFang SC, Hiragino Sans GB, Microsoft YaHei, WenQuanYi Micro Hei, sans-serif, font-extend&quot; color=&quot;#333333&quot;&gt;&lt;span style=&quot;background-color: rgb(255, 255, 255);&quot;&gt;包围结构&lt;/span&gt;&lt;/font&gt;&lt;/div&gt;" style="text;whiteSpace=wrap;html=1;fontSize=31;" vertex="1" parent="1">
          <mxGeometry x="567.5" y="490" width="160" height="40" as="geometry" />
        </mxCell>
        <mxCell id="vRhS7HgRSA_vDluGKMzi-50" value="" style="rounded=0;whiteSpace=wrap;html=1;" vertex="1" parent="1">
          <mxGeometry x="277.5" y="560" width="120" height="120" as="geometry" />
        </mxCell>
        <mxCell id="vRhS7HgRSA_vDluGKMzi-51" value="" style="rounded=0;whiteSpace=wrap;html=1;" vertex="1" parent="1">
          <mxGeometry x="277.5" y="560" width="50" height="50" as="geometry" />
        </mxCell>
        <mxCell id="vRhS7HgRSA_vDluGKMzi-52" value="" style="rounded=0;whiteSpace=wrap;html=1;" vertex="1" parent="1">
          <mxGeometry x="347.5" y="560" width="50" height="50" as="geometry" />
        </mxCell>
        <mxCell id="vRhS7HgRSA_vDluGKMzi-53" value="" style="rounded=0;whiteSpace=wrap;html=1;" vertex="1" parent="1">
          <mxGeometry x="277.5" y="630" width="50" height="50" as="geometry" />
        </mxCell>
        <mxCell id="vRhS7HgRSA_vDluGKMzi-54" value="" style="rounded=0;whiteSpace=wrap;html=1;" vertex="1" parent="1">
          <mxGeometry x="347.5" y="630" width="50" height="50" as="geometry" />
        </mxCell>
        <mxCell id="vRhS7HgRSA_vDluGKMzi-55" value="" style="strokeWidth=2;html=1;shape=mxgraph.flowchart.annotation_2;align=left;labelPosition=right;pointerEvents=1;rotation=-90;" vertex="1" parent="1">
          <mxGeometry x="637.5" y="-70" width="30" height="1070" as="geometry" />
        </mxCell>
        <mxCell id="vRhS7HgRSA_vDluGKMzi-57" value="" style="strokeWidth=2;html=1;shape=mxgraph.flowchart.annotation_2;align=left;labelPosition=right;pointerEvents=1;rotation=-90;" vertex="1" parent="1">
          <mxGeometry x="481" y="667.5" width="30" height="115" as="geometry" />
        </mxCell>
        <mxCell id="vRhS7HgRSA_vDluGKMzi-58" value="" style="strokeWidth=2;html=1;shape=mxgraph.flowchart.annotation_2;align=left;labelPosition=right;pointerEvents=1;rotation=-90;" vertex="1" parent="1">
          <mxGeometry x="252.5" y="585" width="30" height="280" as="geometry" />
        </mxCell>
        <mxCell id="vRhS7HgRSA_vDluGKMzi-59" value="" style="strokeWidth=2;html=1;shape=mxgraph.flowchart.annotation_2;align=left;labelPosition=right;pointerEvents=1;rotation=-90;" vertex="1" parent="1">
          <mxGeometry x="1125" y="175" width="30" height="110" as="geometry" />
        </mxCell>
        <mxCell id="vRhS7HgRSA_vDluGKMzi-60" value="" style="strokeWidth=2;html=1;shape=mxgraph.flowchart.annotation_2;align=left;labelPosition=right;pointerEvents=1;rotation=-90;" vertex="1" parent="1">
          <mxGeometry x="642.5" y="167.5" width="30" height="125" as="geometry" />
        </mxCell>
        <mxCell id="vRhS7HgRSA_vDluGKMzi-61" value="&lt;div style=&quot;text-indent: 28px;&quot;&gt;&lt;font face=&quot;Helvetica Neue, Helvetica, Arial, PingFang SC, Hiragino Sans GB, Microsoft YaHei, WenQuanYi Micro Hei, sans-serif, font-extend&quot; color=&quot;#333333&quot;&gt;&lt;span style=&quot;background-color: rgb(255, 255, 255);&quot;&gt;独体字&lt;/span&gt;&lt;/font&gt;&lt;/div&gt;" style="text;whiteSpace=wrap;html=1;fontSize=31;" vertex="1" parent="1">
          <mxGeometry x="422.5" y="770" width="160" height="40" as="geometry" />
        </mxCell>
        <mxCell id="vRhS7HgRSA_vDluGKMzi-62" value="&lt;div style=&quot;text-indent: 28px;&quot;&gt;&lt;font face=&quot;Helvetica Neue, Helvetica, Arial, PingFang SC, Hiragino Sans GB, Microsoft YaHei, WenQuanYi Micro Hei, sans-serif, font-extend&quot; color=&quot;#333333&quot;&gt;&lt;span style=&quot;background-color: rgb(255, 255, 255);&quot;&gt;品字结构&lt;/span&gt;&lt;/font&gt;&lt;/div&gt;" style="text;whiteSpace=wrap;html=1;fontSize=31;" vertex="1" parent="1">
          <mxGeometry x="187.5" y="770" width="160" height="40" as="geometry" />
        </mxCell>
        <mxCell id="vRhS7HgRSA_vDluGKMzi-64" value="&lt;div style=&quot;text-indent: 28px; font-size: 24px;&quot;&gt;&lt;font face=&quot;Helvetica Neue, Helvetica, Arial, PingFang SC, Hiragino Sans GB, Microsoft YaHei, WenQuanYi Micro Hei, sans-serif, font-extend&quot; color=&quot;#333333&quot; style=&quot;font-size: 24px;&quot;&gt;&lt;span style=&quot;background-color: rgb(255, 255, 255); font-size: 24px;&quot;&gt;左右结构&lt;/span&gt;&lt;/font&gt;&lt;/div&gt;" style="text;whiteSpace=wrap;html=1;fontSize=24;" vertex="1" parent="1">
          <mxGeometry x="260" y="250" width="170" height="45" as="geometry" />
        </mxCell>
        <mxCell id="vRhS7HgRSA_vDluGKMzi-65" value="&lt;div style=&quot;text-indent: 28px; font-size: 24px;&quot;&gt;&lt;font face=&quot;Helvetica Neue, Helvetica, Arial, PingFang SC, Hiragino Sans GB, Microsoft YaHei, WenQuanYi Micro Hei, sans-serif, font-extend&quot; color=&quot;#333333&quot; style=&quot;font-size: 24px;&quot;&gt;&lt;span style=&quot;background-color: rgb(255, 255, 255); font-size: 24px;&quot;&gt;左中右结构&lt;/span&gt;&lt;/font&gt;&lt;/div&gt;" style="text;whiteSpace=wrap;html=1;fontSize=24;" vertex="1" parent="1">
          <mxGeometry x="575" y="245" width="170" height="45" as="geometry" />
        </mxCell>
        <mxCell id="vRhS7HgRSA_vDluGKMzi-66" value="&lt;div style=&quot;text-indent: 28px; font-size: 24px;&quot;&gt;&lt;font face=&quot;Helvetica Neue, Helvetica, Arial, PingFang SC, Hiragino Sans GB, Microsoft YaHei, WenQuanYi Micro Hei, sans-serif, font-extend&quot; color=&quot;#333333&quot; style=&quot;font-size: 24px;&quot;&gt;&lt;span style=&quot;background-color: rgb(255, 255, 255); font-size: 24px;&quot;&gt;上下结构&lt;/span&gt;&lt;/font&gt;&lt;/div&gt;" style="text;whiteSpace=wrap;html=1;fontSize=24;" vertex="1" parent="1">
          <mxGeometry x="835" y="245" width="170" height="45" as="geometry" />
        </mxCell>
        <mxCell id="vRhS7HgRSA_vDluGKMzi-68" value="&lt;div style=&quot;text-indent: 28px; font-size: 24px;&quot;&gt;&lt;font face=&quot;Helvetica Neue, Helvetica, Arial, PingFang SC, Hiragino Sans GB, Microsoft YaHei, WenQuanYi Micro Hei, sans-serif, font-extend&quot; color=&quot;#333333&quot; style=&quot;font-size: 24px;&quot;&gt;&lt;span style=&quot;background-color: rgb(255, 255, 255); font-size: 24px;&quot;&gt;上中下结构&lt;/span&gt;&lt;/font&gt;&lt;/div&gt;" style="text;whiteSpace=wrap;html=1;fontSize=24;" vertex="1" parent="1">
          <mxGeometry x="1055" y="250" width="170" height="45" as="geometry" />
        </mxCell>
        <mxCell id="vRhS7HgRSA_vDluGKMzi-69" value="" style="rounded=0;whiteSpace=wrap;html=1;" vertex="1" parent="1">
          <mxGeometry x="980" y="80" width="60" height="60" as="geometry" />
        </mxCell>
      </root>
    </mxGraphModel>
  </diagram>
</mxfile>
